<mxfile host="app.diagrams.net" modified="2020-12-09T10:47:25.364Z" agent="5.0 (Windows NT 10.0; Win64; x64) AppleWebKit/537.36 (KHTML, like Gecko) Chrome/85.0.4183.121 Safari/537.36" etag="jp0HWDAVimRo6OX42Gf3" version="13.11.0" type="github">
  <diagram id="tDkgz1n_9_K94WxZJOUZ" name="Page-1">
    <mxGraphModel dx="868" dy="1570" grid="1" gridSize="10" guides="1" tooltips="1" connect="1" arrows="1" fold="1" page="1" pageScale="1" pageWidth="827" pageHeight="1169" math="0" shadow="0">
      <root>
        <mxCell id="0" />
        <mxCell id="1" parent="0" />
        <mxCell id="9WoC9xP5h2nJLlkWutj_-1" value="&#xa;&#xa;&#xa;&lt;div&gt;&lt;span style=&quot;font-size: 11pt ; color: rgb(255 , 255 , 255)&quot;&gt;POS平台&#xa;&lt;/span&gt;&lt;/div&gt;&lt;div&gt;&lt;span style=&quot;font-size: 11pt ; color: rgb(255 , 255 , 255)&quot;&gt;扫描“条形码”&lt;/span&gt;&lt;/div&gt;&#xa;&#xa;&#xa;" style="swimlane;html=1;childLayout=stackLayout;resizeParent=1;resizeParentMax=0;startSize=20;" parent="1" vertex="1">
          <mxGeometry x="210" y="-30" width="750" height="920" as="geometry" />
        </mxCell>
        <mxCell id="9WoC9xP5h2nJLlkWutj_-2" value="外部系统" style="swimlane;html=1;startSize=20;" parent="9WoC9xP5h2nJLlkWutj_-1" vertex="1">
          <mxGeometry y="20" width="120" height="900" as="geometry" />
        </mxCell>
        <mxCell id="9WoC9xP5h2nJLlkWutj_-9" value="健康云" style="rounded=1;whiteSpace=wrap;html=1;gradientColor=#7ea6e0;fillColor=#dae8fc;strokeColor=#6c8ebf;" parent="9WoC9xP5h2nJLlkWutj_-2" vertex="1">
          <mxGeometry x="20" y="120" width="80" height="30" as="geometry" />
        </mxCell>
        <mxCell id="9WoC9xP5h2nJLlkWutj_-14" value="&lt;font style=&quot;font-size: 11px&quot;&gt;注册录入客户信息&lt;/font&gt;" style="text;html=1;align=center;verticalAlign=middle;resizable=0;points=[];autosize=1;" parent="9WoC9xP5h2nJLlkWutj_-2" vertex="1">
          <mxGeometry x="10" y="46" width="110" height="20" as="geometry" />
        </mxCell>
        <mxCell id="9WoC9xP5h2nJLlkWutj_-3" value="客户" style="swimlane;html=1;startSize=20;" parent="9WoC9xP5h2nJLlkWutj_-1" vertex="1">
          <mxGeometry x="120" y="20" width="140" height="900" as="geometry" />
        </mxCell>
        <mxCell id="9WoC9xP5h2nJLlkWutj_-10" value="" style="shape=mxgraph.bpmn.user_task;html=1;outlineConnect=0;gradientColor=#ffa500;fillColor=#ffcd28;strokeColor=#d79b00;" parent="9WoC9xP5h2nJLlkWutj_-3" vertex="1">
          <mxGeometry x="40" y="46" width="40" height="54" as="geometry" />
        </mxCell>
        <mxCell id="9WoC9xP5h2nJLlkWutj_-15" value="&lt;b&gt;二维码&lt;/b&gt;" style="shape=note;whiteSpace=wrap;html=1;backgroundOutline=1;darkOpacity=0.05;rounded=1;strokeColor=#6c8ebf;fillColor=#dae8fc;gradientColor=#7ea6e0;" parent="9WoC9xP5h2nJLlkWutj_-3" vertex="1">
          <mxGeometry x="44" y="140" width="40" height="55" as="geometry" />
        </mxCell>
        <mxCell id="9WoC9xP5h2nJLlkWutj_-31" value="" style="shape=mxgraph.bpmn.user_task;html=1;outlineConnect=0;gradientColor=#ffa500;fillColor=#ffcd28;strokeColor=#d79b00;" parent="9WoC9xP5h2nJLlkWutj_-3" vertex="1">
          <mxGeometry x="50" y="340" width="40" height="54" as="geometry" />
        </mxCell>
        <mxCell id="9WoC9xP5h2nJLlkWutj_-37" value="条码号&lt;br&gt;个数&lt;br&gt;金额&lt;br&gt;二维码" style="shape=card;whiteSpace=wrap;html=1;gradientColor=#b3b3b3;fillColor=#f5f5f5;strokeColor=#666666;size=20;" parent="9WoC9xP5h2nJLlkWutj_-3" vertex="1">
          <mxGeometry x="40" y="440" width="70" height="100" as="geometry" />
        </mxCell>
        <mxCell id="9WoC9xP5h2nJLlkWutj_-38" value="" style="curved=1;endArrow=classic;html=1;exitX=0;exitY=0;exitDx=0;exitDy=60;exitPerimeter=0;" parent="9WoC9xP5h2nJLlkWutj_-3" source="9WoC9xP5h2nJLlkWutj_-37" target="9WoC9xP5h2nJLlkWutj_-31" edge="1">
          <mxGeometry width="50" height="50" relative="1" as="geometry">
            <mxPoint x="150" y="490" as="sourcePoint" />
            <mxPoint x="200" y="440" as="targetPoint" />
            <Array as="points">
              <mxPoint y="470" />
              <mxPoint x="-10" y="430" />
              <mxPoint x="10" y="400" />
            </Array>
          </mxGeometry>
        </mxCell>
        <mxCell id="9WoC9xP5h2nJLlkWutj_-4" value="公司人员" style="swimlane;html=1;startSize=20;" parent="9WoC9xP5h2nJLlkWutj_-1" vertex="1">
          <mxGeometry x="260" y="20" width="130" height="900" as="geometry" />
        </mxCell>
        <mxCell id="9WoC9xP5h2nJLlkWutj_-17" value="" style="shape=mxgraph.bpmn.user_task;html=1;outlineConnect=0;gradientColor=#ea6b66;fillColor=#f8cecc;strokeColor=#b85450;" parent="9WoC9xP5h2nJLlkWutj_-4" vertex="1">
          <mxGeometry x="38" y="100" width="44" height="54" as="geometry" />
        </mxCell>
        <mxCell id="9WoC9xP5h2nJLlkWutj_-18" value="采样员1" style="text;html=1;align=center;verticalAlign=middle;resizable=0;points=[];autosize=1;" parent="9WoC9xP5h2nJLlkWutj_-4" vertex="1">
          <mxGeometry x="30" y="70" width="60" height="20" as="geometry" />
        </mxCell>
        <mxCell id="9WoC9xP5h2nJLlkWutj_-22" value="" style="shape=mxgraph.bpmn.user_task;html=1;outlineConnect=0;gradientColor=#ea6b66;fillColor=#f8cecc;strokeColor=#b85450;" parent="9WoC9xP5h2nJLlkWutj_-4" vertex="1">
          <mxGeometry x="38" y="260" width="44" height="54" as="geometry" />
        </mxCell>
        <mxCell id="9WoC9xP5h2nJLlkWutj_-23" value="" style="edgeStyle=orthogonalEdgeStyle;rounded=0;orthogonalLoop=1;jettySize=auto;html=1;" parent="9WoC9xP5h2nJLlkWutj_-4" source="9WoC9xP5h2nJLlkWutj_-17" target="9WoC9xP5h2nJLlkWutj_-22" edge="1">
          <mxGeometry relative="1" as="geometry" />
        </mxCell>
        <mxCell id="9WoC9xP5h2nJLlkWutj_-24" value="贴好条形码的样本管" style="text;html=1;align=center;verticalAlign=middle;resizable=0;points=[];autosize=1;gradientColor=#97d077;fillColor=#d5e8d4;strokeColor=#82b366;opacity=50;" parent="9WoC9xP5h2nJLlkWutj_-4" vertex="1">
          <mxGeometry y="190" width="120" height="20" as="geometry" />
        </mxCell>
        <mxCell id="9WoC9xP5h2nJLlkWutj_-25" value="采样员2" style="text;html=1;align=center;verticalAlign=middle;resizable=0;points=[];autosize=1;" parent="9WoC9xP5h2nJLlkWutj_-4" vertex="1">
          <mxGeometry x="30" y="314" width="60" height="20" as="geometry" />
        </mxCell>
        <mxCell id="9WoC9xP5h2nJLlkWutj_-30" value="&lt;div style=&quot;font-size: 11px&quot;&gt;聚合平台收款二维码&lt;/div&gt;" style="text;html=1;align=center;verticalAlign=middle;resizable=0;points=[];autosize=1;" parent="9WoC9xP5h2nJLlkWutj_-4" vertex="1">
          <mxGeometry x="10" y="345" width="120" height="20" as="geometry" />
        </mxCell>
        <mxCell id="9WoC9xP5h2nJLlkWutj_-34" value="&lt;div style=&quot;font-size: 11px&quot;&gt;付款&lt;/div&gt;" style="text;html=1;align=center;verticalAlign=middle;resizable=0;points=[];autosize=1;" parent="9WoC9xP5h2nJLlkWutj_-4" vertex="1">
          <mxGeometry x="50" y="390" width="40" height="20" as="geometry" />
        </mxCell>
        <mxCell id="9WoC9xP5h2nJLlkWutj_-35" value="" style="endArrow=classic;html=1;entryX=1.071;entryY=0.4;entryDx=0;entryDy=0;entryPerimeter=0;" parent="9WoC9xP5h2nJLlkWutj_-4" target="9WoC9xP5h2nJLlkWutj_-37" edge="1">
          <mxGeometry width="50" height="50" relative="1" as="geometry">
            <mxPoint x="165" y="450" as="sourcePoint" />
            <mxPoint x="-25" y="460" as="targetPoint" />
          </mxGeometry>
        </mxCell>
        <mxCell id="9WoC9xP5h2nJLlkWutj_-36" value="打印" style="text;html=1;align=center;verticalAlign=middle;resizable=0;points=[];autosize=1;" parent="9WoC9xP5h2nJLlkWutj_-4" vertex="1">
          <mxGeometry x="45" y="450" width="40" height="20" as="geometry" />
        </mxCell>
        <mxCell id="p7Z69v1p90sdgrEoob92-3" value="" style="shape=mxgraph.bpmn.user_task;html=1;outlineConnect=0;gradientColor=#ea6b66;fillColor=#f8cecc;strokeColor=#b85450;" vertex="1" parent="9WoC9xP5h2nJLlkWutj_-4">
          <mxGeometry x="38" y="590" width="44" height="54" as="geometry" />
        </mxCell>
        <mxCell id="p7Z69v1p90sdgrEoob92-4" value="" style="edgeStyle=orthogonalEdgeStyle;rounded=0;orthogonalLoop=1;jettySize=auto;html=1;" edge="1" parent="9WoC9xP5h2nJLlkWutj_-4" source="9WoC9xP5h2nJLlkWutj_-22" target="p7Z69v1p90sdgrEoob92-3">
          <mxGeometry relative="1" as="geometry" />
        </mxCell>
        <mxCell id="p7Z69v1p90sdgrEoob92-5" value="样本组" style="text;html=1;align=center;verticalAlign=middle;resizable=0;points=[];autosize=1;" vertex="1" parent="9WoC9xP5h2nJLlkWutj_-4">
          <mxGeometry x="35" y="650" width="50" height="20" as="geometry" />
        </mxCell>
        <mxCell id="9WoC9xP5h2nJLlkWutj_-5" value="POS" style="swimlane;html=1;startSize=20;" parent="9WoC9xP5h2nJLlkWutj_-1" vertex="1">
          <mxGeometry x="390" y="20" width="120" height="900" as="geometry" />
        </mxCell>
        <mxCell id="9WoC9xP5h2nJLlkWutj_-26" value="" style="verticalLabelPosition=bottom;verticalAlign=top;html=1;shadow=0;dashed=0;strokeWidth=1;shape=mxgraph.android.phone2;strokeColor=#001DBC;fillColor=#0050ef;fontColor=#ffffff;" parent="9WoC9xP5h2nJLlkWutj_-5" vertex="1">
          <mxGeometry x="50" y="260" width="30" height="76" as="geometry" />
        </mxCell>
        <mxCell id="9WoC9xP5h2nJLlkWutj_-27" value="&lt;div style=&quot;font-size: 11px&quot;&gt;&lt;span style=&quot;font-size: 11px&quot;&gt;&lt;font style=&quot;font-size: 11px&quot;&gt;POS平台&lt;br/&gt;&lt;/font&gt;&lt;/span&gt;&lt;/div&gt;&lt;div style=&quot;font-size: 11px&quot;&gt;&lt;span style=&quot;font-size: 11px&quot;&gt;&lt;font style=&quot;font-size: 11px&quot;&gt;扫描“条形码”&lt;/font&gt;&lt;/span&gt;&lt;/div&gt;" style="text;html=1;align=center;verticalAlign=middle;resizable=0;points=[];autosize=1;" parent="9WoC9xP5h2nJLlkWutj_-5" vertex="1">
          <mxGeometry x="-30" y="260" width="80" height="30" as="geometry" />
        </mxCell>
        <mxCell id="p7Z69v1p90sdgrEoob92-1" value="" style="verticalLabelPosition=bottom;verticalAlign=top;html=1;shadow=0;dashed=0;strokeWidth=1;shape=mxgraph.android.phone2;strokeColor=#001DBC;fillColor=#0050ef;fontColor=#ffffff;" vertex="1" parent="9WoC9xP5h2nJLlkWutj_-5">
          <mxGeometry x="50" y="400" width="30" height="76" as="geometry" />
        </mxCell>
        <mxCell id="p7Z69v1p90sdgrEoob92-2" value="" style="edgeStyle=orthogonalEdgeStyle;rounded=0;orthogonalLoop=1;jettySize=auto;html=1;" edge="1" parent="9WoC9xP5h2nJLlkWutj_-5" source="9WoC9xP5h2nJLlkWutj_-26" target="p7Z69v1p90sdgrEoob92-1">
          <mxGeometry relative="1" as="geometry" />
        </mxCell>
        <mxCell id="9WoC9xP5h2nJLlkWutj_-6" value="小程序" style="swimlane;html=1;startSize=20;" parent="9WoC9xP5h2nJLlkWutj_-1" vertex="1">
          <mxGeometry x="510" y="20" width="120" height="900" as="geometry" />
        </mxCell>
        <mxCell id="9WoC9xP5h2nJLlkWutj_-8" value="腾程lis" style="swimlane;html=1;startSize=20;" parent="9WoC9xP5h2nJLlkWutj_-1" vertex="1">
          <mxGeometry x="630" y="20" width="120" height="900" as="geometry" />
        </mxCell>
        <mxCell id="9WoC9xP5h2nJLlkWutj_-11" value="" style="edgeStyle=orthogonalEdgeStyle;rounded=0;orthogonalLoop=1;jettySize=auto;html=1;entryX=0.5;entryY=0;entryDx=0;entryDy=0;" parent="9WoC9xP5h2nJLlkWutj_-1" source="9WoC9xP5h2nJLlkWutj_-10" target="9WoC9xP5h2nJLlkWutj_-9" edge="1">
          <mxGeometry relative="1" as="geometry">
            <mxPoint x="60" y="120" as="targetPoint" />
            <Array as="points">
              <mxPoint x="60" y="93" />
            </Array>
          </mxGeometry>
        </mxCell>
        <mxCell id="9WoC9xP5h2nJLlkWutj_-16" value="" style="edgeStyle=orthogonalEdgeStyle;rounded=0;orthogonalLoop=1;jettySize=auto;html=1;" parent="9WoC9xP5h2nJLlkWutj_-1" source="9WoC9xP5h2nJLlkWutj_-9" target="9WoC9xP5h2nJLlkWutj_-15" edge="1">
          <mxGeometry relative="1" as="geometry" />
        </mxCell>
        <mxCell id="9WoC9xP5h2nJLlkWutj_-19" style="edgeStyle=orthogonalEdgeStyle;rounded=0;orthogonalLoop=1;jettySize=auto;html=1;exitX=0;exitY=0;exitDx=40;exitDy=30;exitPerimeter=0;" parent="9WoC9xP5h2nJLlkWutj_-1" source="9WoC9xP5h2nJLlkWutj_-15" target="9WoC9xP5h2nJLlkWutj_-17" edge="1">
          <mxGeometry relative="1" as="geometry">
            <Array as="points">
              <mxPoint x="230" y="190" />
              <mxPoint x="230" y="147" />
            </Array>
          </mxGeometry>
        </mxCell>
        <mxCell id="9WoC9xP5h2nJLlkWutj_-28" value="" style="edgeStyle=orthogonalEdgeStyle;rounded=0;orthogonalLoop=1;jettySize=auto;html=1;entryX=0;entryY=0.605;entryDx=0;entryDy=0;exitX=0.955;exitY=0.741;exitDx=0;exitDy=0;exitPerimeter=0;entryPerimeter=0;" parent="9WoC9xP5h2nJLlkWutj_-1" source="9WoC9xP5h2nJLlkWutj_-22" target="9WoC9xP5h2nJLlkWutj_-26" edge="1">
          <mxGeometry relative="1" as="geometry">
            <mxPoint x="515" y="257" as="targetPoint" />
            <mxPoint x="605" y="210" as="sourcePoint" />
            <Array as="points">
              <mxPoint x="400" y="320" />
              <mxPoint x="400" y="326" />
            </Array>
          </mxGeometry>
        </mxCell>
        <mxCell id="9WoC9xP5h2nJLlkWutj_-20" style="edgeStyle=orthogonalEdgeStyle;rounded=0;orthogonalLoop=1;jettySize=auto;html=1;" parent="1" source="9WoC9xP5h2nJLlkWutj_-10" edge="1">
          <mxGeometry relative="1" as="geometry">
            <mxPoint x="424" y="180" as="sourcePoint" />
            <mxPoint x="510" y="130" as="targetPoint" />
            <Array as="points">
              <mxPoint x="440" y="73" />
              <mxPoint x="440" y="130" />
              <mxPoint x="500" y="130" />
            </Array>
          </mxGeometry>
        </mxCell>
        <mxCell id="9WoC9xP5h2nJLlkWutj_-21" value="采样" style="text;html=1;align=center;verticalAlign=middle;resizable=0;points=[];autosize=1;" parent="1" vertex="1">
          <mxGeometry x="440" y="100" width="40" height="20" as="geometry" />
        </mxCell>
        <mxCell id="9WoC9xP5h2nJLlkWutj_-29" value="" style="endArrow=classic;html=1;exitX=-0.1;exitY=0.829;exitDx=0;exitDy=0;exitPerimeter=0;" parent="1" source="9WoC9xP5h2nJLlkWutj_-26" edge="1">
          <mxGeometry width="50" height="50" relative="1" as="geometry">
            <mxPoint x="630" y="320" as="sourcePoint" />
            <mxPoint x="440" y="360" as="targetPoint" />
          </mxGeometry>
        </mxCell>
        <mxCell id="9WoC9xP5h2nJLlkWutj_-33" value="" style="endArrow=classic;html=1;" parent="1" edge="1">
          <mxGeometry width="50" height="50" relative="1" as="geometry">
            <mxPoint x="430" y="380" as="sourcePoint" />
            <mxPoint x="640" y="400" as="targetPoint" />
          </mxGeometry>
        </mxCell>
        <mxCell id="9WoC9xP5h2nJLlkWutj_-39" value="小票给到客户" style="text;html=1;align=center;verticalAlign=middle;resizable=0;points=[];autosize=1;" parent="1" vertex="1">
          <mxGeometry x="295" y="400" width="90" height="20" as="geometry" />
        </mxCell>
      </root>
    </mxGraphModel>
  </diagram>
</mxfile>
